<svg width="64" height="11" viewBox="0 0 64 11" fill="none" xmlns="http://www.w3.org/2000/svg">
<path d="M5.70634 0L7.51202 3.5147L11.4127 4.1459L8.62799 6.9493L9.23305 10.8541L5.70634 9.072L2.17963 10.8541L2.78469 6.9493L0 4.1459L3.90066 3.5147L5.70634 0Z" fill="#F2C94C"/>
<path d="M18.7063 0L20.512 3.5147L24.4127 4.1459L21.628 6.9493L22.233 10.8541L18.7063 9.072L15.1796 10.8541L15.7847 6.9493L13 4.1459L16.9007 3.5147L18.7063 0Z" fill="#F2C94C"/>
<path d="M31.7063 0L33.512 3.5147L37.4127 4.1459L34.628 6.9493L35.233 10.8541L31.7063 9.072L28.1796 10.8541L28.7847 6.9493L26 4.1459L29.9007 3.5147L31.7063 0Z" fill="#EEEDF5"/>
<path d="M46.512 3.5147L44.7063 0L42.9007 3.5147L39 4.1459L41.7847 6.9493L41.1796 10.8541L44.7063 9.072L48.2331 10.8541L47.628 6.9493L50.4127 4.1459L46.512 3.5147Z" fill="#EEEDF5"/>
<path d="M57.7063 0L59.512 3.5147L63.4127 4.1459L60.628 6.9493L61.233 10.8541L57.7063 9.072L54.1796 10.8541L54.7847 6.9493L52 4.1459L55.9007 3.5147L57.7063 0Z" fill="#EEEDF5"/>
</svg>
